Coordinates
version=1
nRows=12
nColumns=24
inDegrees=yes

Units are S.I. units (second, meters, Newtons, ...)
Angles are in degrees.

endheader
time	pelvis_tilt	pelvis_list	pelvis_rotation	pelvis_tx	pelvis_ty	pelvis_tz	hip_flexion_r	hip_adduction_r	hip_rotation_r	knee_angle_r	ankle_angle_r	subtalar_angle_r	mtp_angle_r	hip_flexion_l	hip_adduction_l	hip_rotation_l	knee_angle_l	ankle_angle_l	subtalar_angle_l	mtp_angle_l	lumbar_extension	lumbar_bending	lumbar_rotation
      0.91200000	     -4.37982586	     -2.19598357	      6.18721174	     -0.32477175	      0.90401989	      0.30052012	     16.69643257	      7.54965290	     -6.01704341	    -25.24940860	     12.39781490	      0.25900810	      7.65329786	     17.25962325	     -5.38778571	     -4.74653073	    -64.83015643	      5.99749378	     -3.03039898	      3.69861224	     -1.74153086	      5.54940290	     -3.07340230
      0.91616667	     -4.30736554	     -2.08444916	      5.97383654	     -0.31993542	      0.90522026	      0.30107361	     15.99170901	      7.56787419	     -5.78194542	    -24.68792982	     12.37777464	      0.33345972	      7.72951254	     17.72474477	     -5.27401573	     -5.03627450	    -64.27196656	      6.36875805	     -2.96246835	      3.66478189	     -1.88025792	      5.43102636	     -2.68292439
      0.92033333	     -4.26595104	     -1.95981939	      5.73690427	     -0.31512995	      0.90632483	      0.30163375	     15.33921071	      7.56185066	     -5.54463429	    -24.16466535	     12.34186774	      0.43044580	      7.79730019	     18.20803222	     -5.14601167	     -5.35126505	    -63.67023152	      6.70384199	     -2.98818682	      3.62837880	     -1.96691621	      5.30128631	     -2.41322022
      0.92450000	     -4.21989699	     -1.83740628	      5.49138057	     -0.31033295	      0.90739578	      0.30221443	     14.68124011	      7.55561490	     -5.30384916	    -23.63536679	     12.29863746	      0.52676585	      7.86782719	     18.67331331	     -5.02774545	     -5.67361712	    -63.02225261	      6.99866175	     -3.04580210	      3.58387140	     -2.05552227	      5.17140979	     -2.12855896
      0.92866667	     -4.17752198	     -1.70578009	      5.22387769	     -0.30556263	      0.90842366	      0.30280594	     14.03673791	      7.53711342	     -5.03399633	    -23.12485685	     12.25496557	      0.63657264	      7.92334837	     19.12252818	     -4.90171109	     -6.00989574	    -62.32105088	      7.25804319	     -3.13453102	      3.54356686	     -2.14887550	      5.05426496	     -1.88025566
      0.93283333	     -4.14641432	     -1.58259220	      4.94178813	     -0.30080224	      0.90936941	      0.30344722	     13.41221781	      7.52280458	     -4.77627903	    -22.62158305	     12.19154964	      0.77519670	      7.95967933	     19.57847389	     -4.80780787	     -6.38442972	    -61.59595907	      7.49323848	     -3.26719399	      3.51241451	     -2.22070863	      4.89990147	     -1.67591905
      0.93700000	     -4.05713225	     -1.46400708	      4.68705765	     -0.29601870	      0.91038973	      0.30405190	     12.69749513	      7.51615854	     -4.50841963	    -22.06424807	     12.17068808	      0.81077179	      8.04205976	     19.95255367	     -4.70768300	     -6.70464789	    -60.80421774	      7.64959714	     -3.40512490	      3.43426432	     -2.36102909	      4.77058525	     -1.21590674
      0.94116667	     -4.00109704	     -1.33511913	      4.39399302	     -0.29127190	      0.91129844	      0.30469662	     12.04283683	      7.49122640	     -4.22058225	    -21.55188113	     12.12878709	      0.90474397	      8.11290076	     20.34578469	     -4.61073443	     -7.07565950	    -59.97683459	      7.79074991	     -3.59808936	      3.35942553	     -2.46470758	      4.63097292	     -0.91388831
      0.94533333	     -3.94192697	     -1.20542413	      4.08476324	     -0.28654529	      0.91216480	      0.30534891	     11.39661692	      7.45817449	     -3.93111186	    -21.05938899	     12.08355554	      1.00683302	      8.17090502	     20.71778962	     -4.51908952	     -7.46137259	    -59.10206905	      7.89444325	     -3.82170251	      3.29079114	     -2.56821959	      4.50793932	     -0.62934072
      0.94950000	     -3.88066432	     -1.08725384	      3.79324822	     -0.28182594	      0.91297936	      0.30599888	     10.73936130	      7.43356937	     -3.64770010	    -20.54263069	     12.05277046	      1.09876459	      8.24167123	     21.08480326	     -4.43658601	     -7.81705170	    -58.19973718	      7.96267168	     -4.07386730	      3.20084942	     -2.67781961	      4.35856311	     -0.26584477
      0.95366667	     -3.82386365	     -0.96925760	      3.48702852	     -0.27711640	      0.91373372	      0.30665079	     10.09662008	      7.40086695	     -3.36025156	    -20.04343102	     12.01741870	      1.19930710	      8.31180066	     21.44050450	     -4.36172435	     -8.19135053	    -57.25969100	      8.00111807	     -4.34628712	      3.10486826	     -2.78096062	      4.22533182	      0.06523183
      0.95783333	     -3.77274408	     -0.86130647	      3.17181806	     -0.27242821	      0.91442555	      0.30730239	      9.46738349	      7.37155579	     -3.07369114	    -19.55045836	     11.95475325	      1.31280779	      8.42013747	     21.79122731	     -4.29948961	     -8.56423866	    -56.28643502	      8.02467784	     -4.63775803	      2.95247083	     -2.88074056	      4.11450778	      0.47732482
